<svg width="40" height="40" viewBox="0 0 40 40" fill="none" xmlns="http://www.w3.org/2000/svg">
<path d="M0 20C0 12.5231 0 8.78461 1.60769 6C2.66091 4.17577 4.17577 2.66091 6 1.60769C8.78461 0 12.5231 0 20 0C27.4769 0 31.2154 0 34 1.60769C35.8242 2.66091 37.3391 4.17577 38.3923 6C40 8.78461 40 12.5231 40 20C40 27.4769 40 31.2154 38.3923 34C37.3391 35.8242 35.8242 37.3391 34 38.3923C31.2154 40 27.4769 40 20 40C12.5231 40 8.78461 40 6 38.3923C4.17577 37.3391 2.66091 35.8242 1.60769 34C0 31.2154 0 27.4769 0 20Z" fill="#978BFF"/>
<path d="M27.484 19.4509C28.0653 18.6267 28.469 17.7062 28.7038 16.725C28.8942 15.9298 28.968 15.1039 29.0931 14.2915C29.1027 14.2285 29.1043 14.1645 29.1091 14.1016C30.0605 14.1016 30.9985 14.1016 32.0006 14.1016C31.622 19.8981 28.891 23.9031 23.7931 26.2493C25.6862 26.3501 27.4156 25.9235 29.0739 24.9907C29.5316 25.8516 29.9856 26.7059 30.4396 27.559C27.6359 29.4235 21.4808 30.594 16.3241 26.3256C17.1477 28.0513 18.3685 29.4012 19.9696 30.4292C19.4792 31.2778 18.9953 32.1159 18.4846 32.9992C18.0519 32.6823 17.6177 32.3966 17.2182 32.0658C14.5209 29.83 12.9477 26.9208 12.4707 23.3713C12.3108 22.1807 12.3247 20.9857 12.5027 19.7945C12.515 19.7126 12.5118 19.628 12.5161 19.5445L12.5076 19.5567C12.583 19.6458 12.6648 19.7299 12.7322 19.8251C14.3006 22.0404 16.3926 23.3529 19.0177 23.6603C21.5305 23.9544 23.7781 23.2215 25.7305 21.547C26.4268 20.9495 27.0396 20.2656 27.4915 19.4409L27.484 19.4509Z" fill="white"/>
<path d="M12.5171 19.546C11.8995 20.4359 11.4829 21.4277 11.238 22.4858C11.0556 23.2743 10.9615 24.0846 10.8262 24.8976C9.94118 24.8976 9.00321 24.8976 8 24.8976C8.37807 19.1011 11.1091 15.0966 16.2075 12.7493C14.3144 12.6491 12.5856 13.0751 10.9262 14.0079C10.4658 13.1408 10.008 12.2804 9.55134 11.4206C12.9369 9.32455 18.8492 8.67857 23.6743 12.6775C23.2973 11.821 22.7727 11.0681 22.162 10.3754C21.5438 9.67427 20.8348 9.08732 20.0305 8.56998C20.5203 7.72186 21.0043 6.88376 21.5144 6C21.9396 6.31074 22.3663 6.59085 22.7588 6.91495C25.3946 9.09233 26.9727 11.9163 27.4914 15.3789C27.6834 16.6619 27.6823 17.9461 27.4941 19.2297C27.4834 19.3027 27.4872 19.3778 27.484 19.4519L27.492 19.4419C27.4166 19.3528 27.3348 19.2687 27.2674 19.1735C25.6989 16.9588 23.6069 15.6462 20.9818 15.3383C18.4588 15.0426 16.2043 15.7832 14.2481 17.4689C13.5599 18.0619 12.9561 18.7419 12.5086 19.5577L12.5171 19.546Z" fill="white"/>
</svg>
