<svg width="131" height="32" viewBox="0 0 131 32" fill="none" xmlns="http://www.w3.org/2000/svg">
<path d="M13.7139 2.28516C21.2878 2.28524 27.4277 8.4256 27.4277 16C27.4276 18.7172 26.6337 21.2479 25.2705 23.3789L21.4395 19.5479C22.8769 16.4087 22.3061 12.568 19.7256 9.9873C16.4113 6.67218 11.0172 6.67227 7.70215 9.9873C4.38707 13.3018 4.38707 18.6964 7.70215 22.0117C8.85527 23.1655 10.726 23.1654 11.8799 22.0117C13.0338 20.8585 13.0338 18.987 11.8799 17.833C10.8691 16.8219 10.8691 15.1771 11.8799 14.166C12.8909 13.1549 14.5368 13.1549 15.5479 14.166C16.5584 15.177 16.5584 16.822 15.5479 17.833C14.3939 18.9862 14.3939 20.8577 15.5479 22.0117L21.0928 27.5566C18.9618 28.9207 16.431 29.7138 13.7139 29.7139C6.13995 29.7139 0.000236835 23.5742 0 16C0 8.42555 6.1398 2.28516 13.7139 2.28516ZM24.4736 23.8027C26.1051 23.8027 27.4285 25.1253 27.4287 26.7568C27.4287 28.3886 26.1052 29.7119 24.4736 29.7119C22.8421 29.7118 21.5195 28.3885 21.5195 26.7568C21.5198 25.1254 22.8422 23.8029 24.4736 23.8027Z" fill="#231F20"/>
<path d="M128.039 19.7298H130.772C130.19 22.1672 128.238 23.6481 125.635 23.6481C122.407 23.6481 120.227 21.3661 120.227 17.9916C120.227 14.6268 122.382 12.3594 125.577 12.3594C128.743 12.3594 130.821 14.5831 130.821 17.977C130.821 18.2344 130.811 18.4966 130.782 18.7685H123.033C123.222 20.3707 124.203 21.3224 125.718 21.3224C126.849 21.3224 127.616 20.7883 128.039 19.7298ZM123.067 16.972H128.029C127.786 15.4425 126.951 14.6463 125.592 14.6463C124.198 14.6463 123.3 15.4911 123.067 16.972Z" fill="#7967E5"/>
<path d="M115.526 18.4671V23.3565H112.617V12.6504H115.526V16.3696C115.914 14.0779 117.011 12.6504 119.104 12.6504H119.745V15.3888H118.618C116.234 15.3888 115.526 16.3599 115.526 18.4671Z" fill="#7967E5"/>
<path d="M100.748 18.0013C100.748 14.5831 102.977 12.3594 106.176 12.3594C109.376 12.3594 111.605 14.5831 111.605 18.0013C111.605 21.4195 109.376 23.6481 106.176 23.6481C102.977 23.6481 100.748 21.4195 100.748 18.0013ZM103.676 18.0013C103.676 19.9823 104.603 21.1136 106.176 21.1136C107.754 21.1136 108.677 19.9871 108.677 18.0013C108.677 16.0155 107.754 14.8939 106.176 14.8939C104.603 14.8939 103.676 16.0203 103.676 18.0013Z" fill="#7967E5"/>
<path d="M94.61 23.3566V14.9617H93.168V12.6505H94.61V12.3495C94.61 9.75186 96.0618 8.35352 98.7516 8.35352C99.3391 8.35352 99.9946 8.41664 100.66 8.54287V10.7861C100.15 10.6938 99.6742 10.6452 99.2809 10.6452C97.9845 10.6452 97.3824 11.2036 97.3824 12.3835V12.6505H100.665V14.9617H97.5184V23.3566H94.61Z" fill="#7967E5"/>
<path d="M89.9353 19.7298H92.6689C92.0862 22.1672 90.1344 23.6481 87.5319 23.6481C84.3031 23.6481 82.123 21.3661 82.123 17.9916C82.123 14.6268 84.2788 12.3594 87.4737 12.3594C90.6393 12.3594 92.7174 14.5831 92.7174 17.977C92.7174 18.2344 92.7077 18.4966 92.6786 18.7685H84.9294C85.1188 20.3707 86.0996 21.3224 87.6145 21.3224C88.7458 21.3224 89.5129 20.7883 89.9353 19.7298ZM84.9634 16.972H89.9256C89.6828 15.4425 88.8477 14.6463 87.4882 14.6463C86.0947 14.6463 85.1965 15.4911 84.9634 16.972Z" fill="#7967E5"/>
<path d="M69.1191 9.4707H76.0672C78.9318 9.4707 80.7963 10.8205 80.7963 12.986C80.7963 14.7291 79.5922 15.9769 77.9365 16.1711C79.9369 16.3556 81.3838 17.72 81.3838 19.6184C81.3838 21.9053 79.2814 23.357 76.2371 23.357H69.1191V9.4707ZM75.7516 15.2437C76.9606 15.2437 77.7568 14.598 77.7568 13.5298C77.7568 12.4907 77.0042 11.9275 75.7467 11.9275H72.1877V15.2437H75.7516ZM72.1877 20.9002H76.0186C77.5432 20.9002 78.3152 20.3564 78.3152 19.1911C78.3152 18.0307 77.5432 17.4869 76.0235 17.4869H72.1877V20.9002Z" fill="#7967E5"/>
<path d="M67.8841 12.6502L62.9025 18.0493L68.2968 23.3562H64.5873L60.4845 19.234V23.3562H57.5762V8.98438H60.4845V17.1608L64.4514 12.6502H67.8841Z" fill="#212124"/>
<path d="M51.3323 12.3594C54.4834 12.3594 56.3042 13.7771 56.3042 16.0883H53.4346C53.4346 15.0929 52.7209 14.486 51.3954 14.486C50.2252 14.486 49.429 14.9473 49.429 15.6367C49.429 16.4816 50.4874 16.6515 51.6624 16.8506L52.3762 16.9768C54.0998 17.2681 56.6295 17.7003 56.6295 20.259C56.6295 22.4148 54.8233 23.6481 51.5799 23.6481C48.1666 23.6481 46.3652 22.2837 46.3652 19.8366H49.2348C49.2348 20.9145 49.9873 21.502 51.5556 21.502C52.9297 21.502 53.7648 21.0602 53.7648 20.3027C53.7648 19.3899 52.7258 19.2054 51.3517 18.9627L50.638 18.8364C49.06 18.5597 46.5643 18.1275 46.5643 15.6902C46.5643 13.6315 48.3511 12.3594 51.3323 12.3594Z" fill="#212124"/>
<path d="M35.6323 23.357H32.4277L37.2151 9.4707H41.517L46.2364 23.357H42.9639L42.0365 20.303H36.5742L35.6323 23.357ZM37.3511 17.7976H41.2742L39.3272 11.4031L37.3511 17.7976Z" fill="#212124"/>
</svg>
