<svg width="86" height="16" viewBox="0 0 86 16" fill="none" xmlns="http://www.w3.org/2000/svg">
<g clip-path="url(#clip0_1348_9294)">
<path d="M41.8213 3.61719C44.3015 3.61719 46.0576 4.01428 47.0889 4.80859C47.493 5.10988 47.765 5.4593 47.9043 5.85645C48.0437 6.23997 48.1133 6.65835 48.1133 7.11035V7.17188H43.8486C43.8347 7.14448 43.7998 7.05496 43.7441 6.9043C43.7023 6.75372 43.5912 6.60272 43.4102 6.45215C43.0479 6.19203 42.4557 6.06254 41.6338 6.0625H41.5703C40.6926 6.06252 40.107 6.14425 39.8145 6.30859C39.5082 6.48656 39.3546 6.71945 39.3545 7.00684C39.3545 7.30818 39.4947 7.55531 39.7734 7.74707C40.0661 7.95236 40.6235 8.06151 41.4453 8.0752L43.0342 8.13672C44.9849 8.21892 46.3994 8.56144 47.2773 9.16406C47.6674 9.43793 47.946 9.7738 48.1133 10.1709C48.2805 10.5544 48.3643 11.0001 48.3643 11.5068V11.6504C48.3643 12.1983 48.2805 12.6984 48.1133 13.1504C47.96 13.5886 47.6738 13.9789 47.2559 14.3213C46.2386 15.1429 44.4691 15.5537 41.9473 15.5537H41.4033C38.9233 15.5537 37.1746 15.0679 36.1572 14.0957C35.5163 13.4795 35.1954 12.7533 35.1953 11.918V11.8145H39.5645C39.6063 12.1295 39.7455 12.3766 39.9824 12.5547C40.3587 12.8695 40.9924 13.0273 41.8838 13.0273H41.9258C42.7479 13.0273 43.3474 12.9106 43.7236 12.6777C44.0161 12.4997 44.163 12.2533 44.1631 11.9385C44.1631 11.7742 44.1348 11.6369 44.0791 11.5273C44.0372 11.4041 43.9394 11.3009 43.7861 11.2188C43.4656 11.0271 42.8526 10.9043 41.9473 10.8496L40.3584 10.7256C38.6166 10.6297 37.3 10.2667 36.4082 9.63672C35.6417 9.10258 35.2578 8.32897 35.2578 7.31543V7.19238C35.2578 6.09663 35.6483 5.25401 36.4287 4.66504C37.3902 3.96655 38.9995 3.61722 41.2568 3.61719H41.8213ZM56.2373 3.61719C58.7176 3.61719 60.4736 4.01428 61.5049 4.80859C61.9089 5.10988 62.1809 5.4593 62.3203 5.85645C62.4596 6.23997 62.5293 6.65835 62.5293 7.11035V7.17188H58.2646C58.2507 7.14448 58.2159 7.05496 58.1602 6.9043C58.1182 6.75372 58.0073 6.60272 57.8262 6.45215C57.4639 6.192 56.8717 6.06254 56.0498 6.0625H55.9863C55.1086 6.06252 54.5231 6.14425 54.2305 6.30859C53.9242 6.48657 53.7706 6.71944 53.7705 7.00684C53.7705 7.30818 53.9108 7.55531 54.1895 7.74707C54.4823 7.95233 55.0395 8.06151 55.8613 8.0752L57.4502 8.13672C59.4009 8.21892 60.8155 8.56142 61.6934 9.16406C62.0835 9.43794 62.3621 9.77379 62.5293 10.1709C62.6965 10.5544 62.7803 11.0001 62.7803 11.5068V11.6504C62.7803 12.1983 62.6965 12.6984 62.5293 13.1504C62.376 13.5887 62.0899 13.9789 61.6719 14.3213C60.6546 15.143 58.8852 15.5537 56.3633 15.5537H55.8193C53.3392 15.5537 51.5905 15.0679 50.5732 14.0957C49.9323 13.4795 49.6114 12.7533 49.6113 11.918V11.8145H53.9805C54.0223 12.1295 54.1615 12.3766 54.3984 12.5547C54.7746 12.8695 55.4085 13.0273 56.2998 13.0273H56.3418C57.164 13.0273 57.7634 12.9106 58.1396 12.6777C58.4322 12.4997 58.579 12.2533 58.5791 11.9385C58.5791 11.7742 58.5508 11.6369 58.4951 11.5273C58.4533 11.4041 58.3554 11.3009 58.2021 11.2188C57.8815 11.0271 57.2686 10.9043 56.3633 10.8496L54.7744 10.7256C53.0325 10.6297 51.7151 10.2668 50.8232 9.63672C50.0571 9.10259 49.6738 8.3288 49.6738 7.31543V7.19238C49.6738 6.09663 50.0644 5.25401 50.8447 4.66504C51.8062 3.96656 53.4155 3.61721 55.6729 3.61719H56.2373ZM70.7666 3.61719C73.2468 3.61719 75.0029 4.01431 76.0342 4.80859C76.4382 5.10988 76.7102 5.45931 76.8496 5.85645C76.9889 6.23997 77.0586 6.65835 77.0586 7.11035V7.17188H72.7939C72.78 7.14448 72.7452 7.05496 72.6895 6.9043C72.6476 6.75372 72.5365 6.60272 72.3555 6.45215C71.9932 6.19202 71.4009 6.06253 70.5791 6.0625H70.5156C69.638 6.06253 69.0524 6.14426 68.7598 6.30859C68.4536 6.48656 68.3009 6.71946 68.3008 7.00684C68.3008 7.30818 68.44 7.55531 68.7188 7.74707C69.0115 7.95236 69.5689 8.06151 70.3906 8.0752L71.9795 8.13672C73.9302 8.21892 75.3448 8.56145 76.2227 9.16406C76.6128 9.43793 76.8914 9.7738 77.0586 10.1709C77.2258 10.5544 77.3096 11.0001 77.3096 11.5068V11.6504C77.3096 12.1983 77.2258 12.6984 77.0586 13.1504C76.9053 13.5886 76.6191 13.9789 76.2012 14.3213C75.1839 15.1429 73.4145 15.5537 70.8926 15.5537H70.3486C67.8686 15.5537 66.1198 15.0679 65.1025 14.0957C64.4615 13.4795 64.1407 12.7533 64.1406 11.918V11.8145H68.5098C68.5516 12.1295 68.6909 12.3766 68.9277 12.5547C69.304 12.8695 69.9377 13.0273 70.8291 13.0273H70.8711C71.6933 13.0273 72.2927 12.9106 72.6689 12.6777C72.9615 12.4997 73.1083 12.2533 73.1084 11.9385C73.1084 11.7742 73.0801 11.6369 73.0244 11.5273C72.9826 11.4041 72.8847 11.3009 72.7314 11.2188C72.4109 11.0271 71.7979 10.9043 70.8926 10.8496L69.3037 10.7256C67.5619 10.6297 66.2454 10.2667 65.3535 9.63672C64.5871 9.10258 64.2031 8.32897 64.2031 7.31543V7.19238C64.2031 6.09663 64.5936 5.25401 65.374 4.66504C66.3355 3.96654 67.9448 3.61722 70.2021 3.61719H70.7666ZM26.9219 3.63672C29.6253 3.63672 31.5346 4.30808 32.6494 5.65039C33.4995 6.69134 33.9248 8.16357 33.9248 10.0674V10.4375H23.3682C23.4658 11.1634 23.7659 11.725 24.2676 12.1221C24.8527 12.5877 25.7236 12.8202 26.8799 12.8203C27.8693 12.8203 28.6155 12.6627 29.1172 12.3477C29.3258 12.211 29.4579 12.0879 29.5137 11.9785L29.6396 11.7314H33.8828C33.8828 12.1971 33.7435 12.6632 33.4648 13.1289C33.0747 13.8 32.4337 14.3479 31.542 14.7725C30.4411 15.293 28.9704 15.5527 27.1309 15.5527H26.3574C23.7657 15.5527 21.8637 14.9231 20.6514 13.6631C19.6899 12.6769 19.209 11.3683 19.209 9.73828V9.45117C19.209 7.88983 19.6551 6.5956 20.5469 5.56836C21.6896 4.28084 23.5085 3.63672 26.0029 3.63672H26.9219ZM7.96387 0C10.5001 0 12.5628 0.383362 14.1514 1.15039C15.503 1.8078 16.5061 2.71871 17.1611 3.88281C17.6767 4.85521 17.9345 5.93059 17.9346 7.1084V7.72461C17.9346 8.98471 17.705 10.1153 17.2451 11.1152C16.6598 12.3752 15.6981 13.3474 14.3604 14.0322C12.7299 14.8678 11.2661 15.2861 8.64258 15.2861C8.25198 15.2754 7.86377 15.266 7.48047 15.2588C3.38565 15.1817 6.91656e-06 11.9029 0 7.81055V0H7.96387ZM83.1807 3.88281H85.835V6.75879H83.1807V10.9502C83.1807 11.4158 83.2635 11.7447 83.4307 11.9365C83.5978 12.1282 83.9186 12.2236 84.3926 12.2236H85.835V15.2852H82.1348C81.1734 15.2851 80.428 15.0243 79.8984 14.5039C79.3831 13.9834 79.125 13.2166 79.125 12.2031V0.410156H83.1807V3.88281ZM4.30566 7.54199C4.30567 9.93513 6.24754 11.875 8.64258 11.875C10.9419 11.875 11.6782 11.3817 12.584 10.3955C12.9182 10.0259 13.1481 9.60806 13.2734 9.14258C13.3988 8.67694 13.4619 8.17669 13.4619 7.64258V7.51953C13.4619 6.34163 13.1617 5.43766 12.5625 4.80762C11.6707 3.86258 10.0747 3.38965 7.77539 3.38965H4.30566V7.54199ZM26.5254 6.24609C25.55 6.24609 24.7971 6.43779 24.2676 6.82129C23.8077 7.13632 23.5217 7.62282 23.4102 8.28027H29.5557C29.5557 7.7461 29.375 7.30045 29.0127 6.94434C28.5389 6.4787 27.7097 6.24615 26.5254 6.24609Z" fill="#292D35"/>
</g>
<defs>
<clipPath id="clip0_1348_9294">
<rect width="86" height="16" fill="white"/>
</clipPath>
</defs>
</svg>
