<svg width="168" height="32" viewBox="0 0 168 32" fill="none" xmlns="http://www.w3.org/2000/svg">
<g clip-path="url(#clip0_1348_9310)">
<path d="M31.4803 0.279297H15.7402V16.0194H31.4803V0.279297Z" fill="#27ABE2"/>
<path d="M15.74 16.0195H0V31.7596H15.74V16.0195Z" fill="#27ABE2"/>
<path d="M28.3444 3.41602H3.13672V28.6237H28.3444V3.41602Z" fill="#27ABE2"/>
<path d="M7.64062 10.8805V25.9367H12.5572V6.10547L7.64062 10.8805Z" fill="white"/>
<path d="M23.8404 10.8805V25.9367H18.9238V6.10547L23.8404 10.8805Z" fill="white"/>
<path d="M18.2037 14.7946V25.9365H13.2871V10.0195L18.2037 14.7946Z" fill="white"/>
<path d="M39.5449 7.29492V17.8826H41.6318V11.3154L45.8646 17.8826L49.991 11.3862V17.8826H52.2666V7.29492H49.991L45.9118 13.7678L41.6318 7.29492H39.5449Z" fill="#1A1B1D"/>
<path d="M63.7259 9.429V7.29492H53.1855V17.8826H63.7259V15.7368H55.2724V13.5202H61.4975V11.4451H55.2724V9.429H63.7259Z" fill="#1A1B1D"/>
<path d="M75.3285 7.29492H64.6465V9.429H68.9145V17.8826H71.0013V9.429H75.3285V7.29492Z" fill="#1A1B1D"/>
<path d="M124.258 15.8429V7.29492H121.982V17.8826H123.126H124.258H130.53V15.8429H124.258Z" fill="#1A1B1D"/>
<path d="M133.63 7.29492H131.449V17.8826H133.63V7.29492Z" fill="#1A1B1D"/>
<path d="M145.044 7.29492H134.539V9.429H138.772V17.8826H140.859V9.429H145.044V7.29492Z" fill="#1A1B1D"/>
<path d="M165.866 7.29492V14.4634L159.688 7.29492H157.365V17.8826H159.688V10.7495L165.866 17.8826H166.573H168V7.29492H165.866Z" fill="#1A1B1D"/>
<path d="M95.8188 7.29492H90.018C88.7332 7.29492 87.6836 8.34428 87.6836 9.6294V15.5599C87.6836 16.8451 88.7332 17.8944 90.018 17.8944H95.8188C97.104 17.8944 98.1536 16.8451 98.1536 15.5599V9.6294C98.1536 8.34428 97.104 7.29492 95.8188 7.29492ZM96.0784 15.2298C96.0784 15.666 95.7248 16.0316 95.2768 16.0316H90.372C89.9356 16.0316 89.57 15.6778 89.57 15.2298V10.0067C89.57 9.57048 89.924 9.20496 90.372 9.20496H95.2768C95.7128 9.20496 96.0784 9.55868 96.0784 10.0067V15.2298Z" fill="#1A1B1D"/>
<path d="M118.741 7.29492H112.94C111.655 7.29492 110.605 8.34428 110.605 9.6294V15.5599C110.605 16.8451 111.655 17.8944 112.94 17.8944H118.741C120.026 17.8944 121.075 16.8451 121.075 15.5599V9.6294C121.075 8.34428 120.026 7.29492 118.741 7.29492ZM119 15.2298C119 15.666 118.647 16.0316 118.198 16.0316H113.294C112.857 16.0316 112.492 15.6778 112.492 15.2298V10.0067C112.492 9.57048 112.845 9.20496 113.294 9.20496H118.198C118.635 9.20496 119 9.55868 119 10.0067V15.2298Z" fill="#1A1B1D"/>
<path d="M86.7771 12.4827V9.429C86.7771 8.15564 85.4919 7.29492 84.1007 7.29492H76.2363V17.8826H78.5119V14.5696H80.4575L83.8295 17.8826H86.7887L83.4875 14.5696H84.4187C85.8455 14.5696 86.7887 13.3905 86.7887 12.4827H86.7771ZM78.5119 12.5888V9.429H83.8531C84.6311 9.429 84.8787 9.77092 84.8787 10.9264C84.8787 12.0818 84.6899 12.577 83.7939 12.577H78.5119V12.5888Z" fill="#1A1B1D"/>
<path d="M107.375 7.29496H99.0742V17.8827H101.255V14.5696H107.375C108.66 14.5696 109.709 13.5202 109.709 12.2351V9.61768C109.709 8.33252 108.66 7.2832 107.375 7.2832V7.29496ZM107.516 11.9404C107.516 12.3176 107.209 12.6242 106.832 12.6242H101.243V9.4408H106.832C107.209 9.4408 107.516 9.74736 107.516 10.1246V11.9522V11.9404Z" fill="#1A1B1D"/>
<path d="M154.124 7.29492H148.288C147.003 7.29492 145.953 8.34428 145.953 9.6294V17.8826H148.04V15.7368H154.218V17.8826H156.447V9.6294C156.447 8.34428 155.397 7.29492 154.112 7.29492H154.124ZM148.04 13.6145V10.0421C148.04 9.70016 148.312 9.429 148.653 9.429H153.605C153.947 9.429 154.218 9.70016 154.218 10.0421V13.6145H148.04Z" fill="#1A1B1D"/>
<path d="M43.2355 20.1934C44.2375 20.1934 44.6383 20.6532 44.6383 21.5374V22.0208C44.6383 22.9051 44.2375 23.365 43.2355 23.365H40.5355V24.6147C40.5355 24.709 40.4883 24.7562 40.3939 24.7562H39.6864C39.5921 24.7562 39.5332 24.709 39.5332 24.6147V20.3938C39.5332 20.2641 39.6039 20.1934 39.7336 20.1934H43.2355ZM40.5471 22.4925H43.0467C43.4947 22.4925 43.6479 22.3038 43.6479 21.9148V21.6672C43.6479 21.2781 43.4831 21.0894 43.0467 21.0894H40.6415C40.6415 21.0894 40.5591 21.113 40.5591 21.172V22.5043L40.5471 22.4925Z" fill="#00ABE4"/>
<path d="M48.8464 20.1934C49.8488 20.1934 50.2496 20.6533 50.2496 21.5375V21.903C50.2496 22.6458 49.9664 23.0821 49.2828 23.2L50.3908 24.5794C50.3908 24.5794 50.4264 24.7445 50.3084 24.7445H49.4712C49.3652 24.7445 49.33 24.7209 49.2944 24.662L48.2688 23.3061H46.17V24.603C46.17 24.6973 46.1228 24.7445 46.0284 24.7445H45.3212C45.2268 24.7445 45.168 24.6973 45.168 24.603V20.3821C45.168 20.2524 45.2384 20.1816 45.3684 20.1816H48.87L48.8464 20.1934ZM46.1584 22.5161H48.6576C49.106 22.5161 49.2592 22.3275 49.2592 21.9384V21.6672C49.2592 21.2782 49.094 21.0895 48.6576 21.0895H46.2524C46.2524 21.0895 46.17 21.1131 46.17 21.172V22.5279L46.1584 22.5161Z" fill="#00ABE4"/>
<path d="M55.4502 20.1934C55.5446 20.1934 55.6038 20.2406 55.6038 20.3349V20.948C55.6038 21.0424 55.5566 21.0895 55.4502 21.0895H52.609C51.937 21.0895 51.7482 21.2899 51.7482 21.9738V22.0445H55.4266C55.521 22.0445 55.5682 22.0917 55.5682 22.186V22.7048C55.5682 22.7991 55.521 22.8462 55.4266 22.8462H51.7482V22.9524C51.7482 23.6362 51.937 23.8366 52.609 23.8366H55.4502C55.5446 23.8366 55.6038 23.8838 55.6038 23.9781V24.603C55.6038 24.6973 55.5566 24.7445 55.4502 24.7445H52.5854C51.265 24.7445 50.7578 24.2729 50.7578 23.0231V21.903C50.7578 20.6533 51.265 20.1816 52.5854 20.1816H55.4502V20.1934Z" fill="#00ABE4"/>
<path d="M57.5138 20.1934C57.9026 20.1934 58.0326 20.2759 58.2094 20.6886L59.565 23.813C59.565 23.813 59.6122 23.8719 59.6594 23.8719H59.7422C59.7422 23.8719 59.8126 23.8602 59.8362 23.813L61.1922 20.6886C61.369 20.2759 61.4986 20.1934 61.8878 20.1934H62.5834C63.0434 20.1934 63.1614 20.3702 63.1614 20.8654V24.6029C63.1614 24.6972 63.1142 24.7444 63.0078 24.7444H62.3478C62.2534 24.7444 62.2062 24.6972 62.2062 24.6029V21.2073C62.2062 21.2073 62.1942 21.1366 62.159 21.1366H62.1002C62.1002 21.1366 62.0294 21.1484 62.0174 21.1838L60.697 24.096C60.485 24.5676 60.2962 24.7326 59.8598 24.7326H59.5414C59.1054 24.7326 58.9286 24.5676 58.7046 24.096L57.3838 21.1838C57.3838 21.1838 57.3486 21.1366 57.3014 21.1366H57.2426C57.2426 21.1366 57.1954 21.1602 57.1954 21.2073V24.6029C57.1954 24.6972 57.1482 24.7444 57.0538 24.7444H56.3934C56.2994 24.7444 56.2402 24.6972 56.2402 24.6029V20.8654C56.2402 20.3702 56.3582 20.1934 56.8182 20.1934H57.5254H57.5138Z" fill="#00ABE4"/>
<path d="M64.728 20.1934C64.8224 20.1934 64.8692 20.2405 64.8692 20.3348V24.6029C64.8692 24.6972 64.8224 24.7444 64.728 24.7444H64.0204C63.926 24.7444 63.8672 24.6972 63.8672 24.6029V20.3348C63.8672 20.2405 63.9144 20.1934 64.0204 20.1934H64.728Z" fill="#00ABE4"/>
<path d="M66.4505 20.1934C66.5449 20.1934 66.5921 20.2405 66.5921 20.3348V22.9287C66.5921 23.6126 66.7925 23.8248 67.4529 23.8248H69.2569C69.9289 23.8248 70.1173 23.6243 70.1173 22.9287V20.3348C70.1173 20.2405 70.1645 20.1934 70.2589 20.1934H70.9665C71.0605 20.1934 71.1077 20.2405 71.1077 20.3348V23.0348C71.1077 24.2846 70.6009 24.7562 69.2801 24.7562H67.4057C66.0853 24.7562 65.5781 24.2846 65.5781 23.0348V20.3348C65.5781 20.2405 65.6253 20.1934 65.7313 20.1934H66.4389H66.4505Z" fill="#00ABE4"/>
<path d="M73.1345 20.1934C73.5237 20.1934 73.6533 20.2759 73.8301 20.6886L75.1861 23.813C75.1861 23.813 75.2333 23.8719 75.2805 23.8719H75.3629C75.3629 23.8719 75.4337 23.8602 75.4573 23.813L76.8129 20.6886C76.9901 20.2759 77.1197 20.1934 77.5089 20.1934H78.2045C78.6641 20.1934 78.7821 20.3702 78.7821 20.8654V24.6029C78.7821 24.6972 78.7349 24.7444 78.6289 24.7444H77.9685C77.8741 24.7444 77.8269 24.6972 77.8269 24.6029V21.2073C77.8269 21.2073 77.8153 21.1366 77.7797 21.1366H77.7209C77.7209 21.1366 77.6501 21.1484 77.6385 21.1838L76.3181 24.096C76.1057 24.5676 75.9169 24.7326 75.4809 24.7326H75.1625C74.7261 24.7326 74.5493 24.5676 74.3253 24.096L73.0049 21.1838C73.0049 21.1838 72.9693 21.1366 72.9221 21.1366H72.8633C72.8633 21.1366 72.8161 21.1602 72.8161 21.2073V24.6029C72.8161 24.6972 72.7689 24.7444 72.6745 24.7444H72.0145C71.9201 24.7444 71.8613 24.6972 71.8613 24.6029V20.8654C71.8613 20.3702 71.9789 20.1934 72.4389 20.1934H73.1465H73.1345Z" fill="#00ABE4"/>
<path d="M85.2434 20.1934C86.2338 20.1934 86.6462 20.6532 86.6462 21.5374V22.0208C86.6462 22.9051 86.2454 23.365 85.2434 23.365H82.5434V24.6147C82.5434 24.709 82.4962 24.7562 82.4018 24.7562H81.6942C81.6002 24.7562 81.541 24.709 81.541 24.6147V20.3938C81.541 20.2641 81.6118 20.1934 81.7414 20.1934H85.2434ZM82.5434 22.4925H85.043C85.491 22.4925 85.6442 22.3038 85.6442 21.9148V21.6672C85.6442 21.2781 85.479 21.0894 85.043 21.0894H82.6374C82.6374 21.0894 82.555 21.113 82.555 21.172V22.5043L82.5434 22.4925Z" fill="#00ABE4"/>
<path d="M90.8564 20.1934C91.8588 20.1934 92.2596 20.6533 92.2596 21.5375V21.903C92.2596 22.6458 91.9764 23.0821 91.2928 23.2L92.4008 24.5794C92.4008 24.5794 92.4364 24.7445 92.3184 24.7445H91.4812C91.3752 24.7445 91.34 24.7209 91.2928 24.662L90.2668 23.3061H88.1684V24.603C88.1684 24.6973 88.1212 24.7445 88.0268 24.7445H87.3192C87.2252 24.7445 87.166 24.6973 87.166 24.603V20.3821C87.166 20.2524 87.2252 20.1816 87.3664 20.1816H90.8684L90.8564 20.1934ZM88.1564 22.5161H90.656C91.104 22.5161 91.2572 22.3275 91.2572 21.9384V21.6672C91.2572 21.2782 91.0924 21.0895 90.656 21.0895H88.2508C88.2508 21.0895 88.1684 21.1131 88.1684 21.172V22.5279L88.1564 22.5161Z" fill="#00ABE4"/>
<path d="M96.5975 20.1934C97.9179 20.1934 98.4251 20.665 98.4251 21.9148V23.0348C98.4251 24.2846 97.9299 24.7562 96.5975 24.7562H94.5811C93.2607 24.7562 92.7539 24.2846 92.7539 23.0348V21.9148C92.7539 20.665 93.2607 20.1934 94.5811 20.1934H96.5975ZM93.7559 22.9641C93.7559 23.6479 93.9563 23.8484 94.6283 23.8484H96.5619C97.2343 23.8484 97.4227 23.6479 97.4227 22.9641V21.9855C97.4227 21.3016 97.2223 21.1012 96.5619 21.1012H94.6283C93.9563 21.1012 93.7559 21.3016 93.7559 21.9855V22.9641Z" fill="#00ABE4"/>
<path d="M102.8 20.1934C103.802 20.1934 104.203 20.6532 104.203 21.5374V22.0208C104.203 22.9051 103.802 23.365 102.8 23.365H100.1V24.6147C100.1 24.709 100.052 24.7562 99.9581 24.7562H99.2509C99.1565 24.7562 99.0977 24.709 99.0977 24.6147V20.3938C99.0977 20.2641 99.1685 20.1934 99.2981 20.1934H102.8ZM100.1 22.4925H102.599C103.047 22.4925 103.2 22.3038 103.2 21.9148V21.6672C103.2 21.2781 103.036 21.0894 102.599 21.0894H100.194C100.194 21.0894 100.112 21.113 100.112 21.172V22.5043L100.1 22.4925Z" fill="#00ABE4"/>
<path d="M109.355 20.1934C109.449 20.1934 109.508 20.2406 109.508 20.3349V20.948C109.508 21.0424 109.461 21.0895 109.355 21.0895H106.513C105.841 21.0895 105.641 21.2899 105.641 21.9738V22.0445H109.319C109.414 22.0445 109.461 22.0917 109.461 22.186V22.7048C109.461 22.7991 109.414 22.8462 109.319 22.8462H105.641V22.9524C105.641 23.6362 105.829 23.8366 106.513 23.8366H109.355C109.449 23.8366 109.508 23.8838 109.508 23.9781V24.603C109.508 24.6973 109.461 24.7445 109.355 24.7445H106.49C105.169 24.7445 104.662 24.2729 104.662 23.0231V21.903C104.662 20.6533 105.169 20.1816 106.49 20.1816H109.355V20.1934Z" fill="#00ABE4"/>
<path d="M113.823 20.1934C114.825 20.1934 115.226 20.6533 115.226 21.5375V21.903C115.226 22.6458 114.943 23.0821 114.26 23.2L115.368 24.5794C115.368 24.5794 115.403 24.7445 115.285 24.7445H114.448C114.342 24.7445 114.306 24.7209 114.26 24.662L113.234 23.3061H111.135V24.603C111.135 24.6973 111.088 24.7445 110.994 24.7445H110.286C110.192 24.7445 110.133 24.6973 110.133 24.603V20.3821C110.133 20.2524 110.204 20.1816 110.333 20.1816H113.835L113.823 20.1934ZM111.123 22.5161H113.623C114.071 22.5161 114.224 22.3275 114.224 21.9384V21.6672C114.224 21.2782 114.059 21.0895 113.623 21.0895H111.218C111.218 21.0895 111.135 21.1131 111.135 21.172V22.5279L111.123 22.5161Z" fill="#00ABE4"/>
<path d="M120.768 20.1934C120.863 20.1934 120.921 20.2405 120.921 20.3348V20.9715C120.921 21.0658 120.874 21.1248 120.768 21.1248H118.729V24.6147C118.729 24.709 118.681 24.7562 118.587 24.7562H117.88C117.785 24.7562 117.738 24.709 117.738 24.6147V21.1248H115.698C115.604 21.1248 115.545 21.0776 115.545 20.9715V20.3348C115.545 20.2405 115.592 20.1934 115.698 20.1934H120.78H120.768Z" fill="#00ABE4"/>
<path d="M122.23 20.1934C122.324 20.1934 122.372 20.2405 122.372 20.3348V24.6029C122.372 24.6972 122.324 24.7444 122.23 24.7444H121.523C121.428 24.7444 121.369 24.6972 121.369 24.6029V20.3348C121.369 20.2405 121.416 20.1934 121.523 20.1934H122.23Z" fill="#00ABE4"/>
<path d="M127.747 20.1934C127.842 20.1934 127.901 20.2406 127.901 20.3349V20.948C127.901 21.0424 127.853 21.0895 127.747 21.0895H124.906C124.234 21.0895 124.033 21.2899 124.033 21.9738V22.0445H127.712C127.806 22.0445 127.853 22.0917 127.853 22.186V22.7048C127.853 22.7991 127.806 22.8462 127.712 22.8462H124.033V22.9524C124.033 23.6362 124.222 23.8366 124.906 23.8366H127.747C127.842 23.8366 127.901 23.8838 127.901 23.9781V24.603C127.901 24.6973 127.853 24.7445 127.747 24.7445H124.882C123.562 24.7445 123.055 24.2729 123.055 23.0231V21.903C123.055 20.6533 123.562 20.1816 124.882 20.1816H127.747V20.1934Z" fill="#00ABE4"/>
<path d="M133.042 20.1934C133.136 20.1934 133.183 20.2406 133.183 20.3349V20.948C133.183 21.0424 133.136 21.0895 133.042 21.0895H129.776C129.528 21.0895 129.434 21.231 129.434 21.455V21.679C129.434 21.9148 129.54 22.0445 129.776 22.0445H132.216C132.971 22.0445 133.36 22.4454 133.36 23.1646V23.6834C133.36 24.32 132.994 24.7445 132.205 24.7445H128.597C128.502 24.7445 128.444 24.6973 128.444 24.603V23.9781C128.444 23.8838 128.491 23.8366 128.597 23.8366H132.016C132.264 23.8366 132.358 23.6952 132.358 23.4712V23.2C132.358 22.9642 132.252 22.8345 132.016 22.8345H129.575C128.833 22.8345 128.432 22.4336 128.432 21.7144V21.2428C128.432 20.6061 128.797 20.1816 129.587 20.1816H133.042V20.1934Z" fill="#00ABE4"/>
</g>
<defs>
<clipPath id="clip0_1348_9310">
<rect width="168" height="32" fill="white"/>
</clipPath>
</defs>
</svg>
