<svg width="20" height="20" viewBox="0 0 20 20" fill="none" xmlns="http://www.w3.org/2000/svg">
<path fill-rule="evenodd" clip-rule="evenodd" d="M9.41211 3.57818C9.73755 3.25275 10.2654 3.25275 10.5908 3.57818C10.9157 3.90355 10.9158 4.4306 10.5908 4.75592L6.17773 9.16803H15.835C16.295 9.1682 16.668 9.54091 16.668 10.001C16.6679 10.4611 16.295 10.8339 15.835 10.834H6.17969L10.5908 15.2442C10.9161 15.5696 10.9161 16.0975 10.5908 16.4229C10.2654 16.7482 9.73753 16.7482 9.41211 16.4229L3.5791 10.5899C3.4284 10.4392 3.33501 10.2311 3.33496 10.001C3.33496 9.8426 3.37934 9.69448 3.45605 9.56842C3.49001 9.51252 3.53081 9.4595 3.5791 9.41119L9.41211 3.57818Z" fill="#A5A6AC"/>
</svg>
