<svg width="20" height="20" viewBox="0 0 20 20" fill="none" xmlns="http://www.w3.org/2000/svg">
<path d="M9.41309 3.57812C9.73852 3.25269 10.2664 3.25269 10.5918 3.57812C10.9167 3.90349 10.9168 4.43054 10.5918 4.75586L6.17871 9.16797H15.8359C16.296 9.16814 16.6689 9.54085 16.6689 10.001C16.6689 10.461 16.296 10.8338 15.8359 10.834H6.18066L10.5918 15.2441C10.9171 15.5695 10.917 16.0974 10.5918 16.4229C10.2664 16.7482 9.7385 16.7482 9.41309 16.4229L3.58008 10.5898C3.42937 10.4392 3.33598 10.231 3.33594 10.001C3.33594 9.84254 3.38032 9.69443 3.45703 9.56836C3.49098 9.51247 3.53179 9.45944 3.58008 9.41113L9.41309 3.57812Z" fill="#A5A6AC"/>
</svg>
