<svg width="20" height="20" viewBox="0 0 20 20" fill="none" xmlns="http://www.w3.org/2000/svg">
<path d="M9.41309 3.57812C9.73852 3.25269 10.2654 3.25269 10.5908 3.57812L16.4248 9.41113C16.4729 9.45932 16.513 9.51262 16.5469 9.56836C16.6238 9.69451 16.6689 9.84238 16.6689 10.001C16.6689 10.1856 16.6075 10.3551 16.5059 10.4932C16.4812 10.5266 16.455 10.5596 16.4248 10.5898L10.5908 16.4229C10.2654 16.748 9.73846 16.748 9.41309 16.4229C9.08768 16.0974 9.08773 15.5696 9.41309 15.2441L13.8223 10.834H4.16895C3.70877 10.834 3.33603 10.4611 3.33594 10.001C3.33594 9.54074 3.70871 9.16797 4.16895 9.16797H13.8242L9.41309 4.75586C9.08768 4.43045 9.08774 3.90357 9.41309 3.57812Z" fill="#1A1B1D"/>
</svg>
