<svg width="40" height="40" viewBox="0 0 40 40" fill="none" xmlns="http://www.w3.org/2000/svg">
<path d="M0 20C0 12.5231 0 8.78461 1.60769 6C2.66091 4.17577 4.17577 2.66091 6 1.60769C8.78461 0 12.5231 0 20 0C27.4769 0 31.2154 0 34 1.60769C35.8242 2.66091 37.3391 4.17577 38.3923 6C40 8.78461 40 12.5231 40 20C40 27.4769 40 31.2154 38.3923 34C37.3391 35.8242 35.8242 37.3391 34 38.3923C31.2154 40 27.4769 40 20 40C12.5231 40 8.78461 40 6 38.3923C4.17577 37.3391 2.66091 35.8242 1.60769 34C0 31.2154 0 27.4769 0 20Z" fill="#F48A00"/>
<path d="M7.23438 19.8376C9.31985 18.7355 11.1849 16.6497 13.5378 18.5429C15.944 20.4789 18.2573 23.4234 20.6877 25.2099C23.1247 27.0004 24.34 23.5178 26.4246 23.45C26.5313 23.4467 27.5371 23.5236 27.4337 23.6731V23.6737C24.9774 25.2655 23.0721 27.634 21.5523 30.1154L20.0827 32.9668C17.0947 27.6024 12.9817 22.3739 7.23438 19.8376ZM20.1212 7.03125C23.1834 12.182 27.136 17.4111 32.7665 19.8789C32.7809 19.9668 32.7237 20.0129 32.6655 20.0629C32.1917 20.4679 29.743 21.8204 29.1621 21.8882C27.7829 22.0482 27.2545 21.5381 26.3018 20.7261C24.1024 18.8523 21.9959 16.4291 19.7585 14.6644C19.4636 14.4317 19.1073 14.1424 18.7283 14.0786C16.0958 13.635 15.611 16.8993 13.052 16.1204C15.5245 14.2168 17.5663 11.7961 19.0967 9.07558L20.1212 7.03125Z" fill="white"/>
</svg>
