<svg width="40" height="40" viewBox="0 0 40 40" fill="none" xmlns="http://www.w3.org/2000/svg">
<path d="M0 20C0 12.5231 0 8.78461 1.60769 6C2.66091 4.17577 4.17577 2.66091 6 1.60769C8.78461 0 12.5231 0 20 0C27.4769 0 31.2154 0 34 1.60769C35.8242 2.66091 37.3391 4.17577 38.3923 6C40 8.78461 40 12.5231 40 20C40 27.4769 40 31.2154 38.3923 34C37.3391 35.8242 35.8242 37.3391 34 38.3923C31.2154 40 27.4769 40 20 40C12.5231 40 8.78461 40 6 38.3923C4.17577 37.3391 2.66091 35.8242 1.60769 34C0 31.2154 0 27.4769 0 20Z" fill="#62AEF5"/>
<path d="M20.3972 32.8283C19.7283 32.8283 19.1352 32.8418 18.543 32.8253C17.458 32.7954 16.3526 32.8583 15.2937 32.6861C12.2411 32.19 10.0328 29.6912 10.0279 26.843C10.0205 22.754 10.0303 18.665 10.0156 14.576C10.014 14.2078 10.1307 14.145 10.4994 14.1944C13.951 14.6591 16.258 17.0987 16.2588 20.3039C16.2588 22.3731 16.2727 24.443 16.2563 26.5122C16.2335 29.3238 17.5657 31.3848 20.2692 32.7049C20.2896 32.7153 20.3042 32.7385 20.3972 32.8283Z" fill="white"/>
<path d="M20.7266 32.2913C21.296 31.7271 21.9029 31.207 22.403 30.612C23.3289 29.5112 23.7449 28.2293 23.7515 26.8426C23.7613 24.6237 23.7555 22.4048 23.7564 20.186C23.7572 17.0728 26.2355 14.5322 29.599 14.1827C29.9139 14.1498 29.9954 14.2306 29.9954 14.5135C29.9857 18.6518 30.0183 22.7902 29.9759 26.9286C29.9326 31.1314 25.3104 33.9497 21.039 32.4215C20.9166 32.3789 20.8 32.3227 20.7266 32.2913Z" fill="white"/>
<path d="M13.1356 12.8813C11.3842 12.8746 10.0194 11.6076 10.0234 9.99115C10.0267 8.42709 11.4527 7.14068 13.1634 7.15639C14.8847 7.17211 16.269 8.46077 16.2552 10.0353C16.2413 11.6248 14.8569 12.888 13.1356 12.8813Z" fill="white"/>
<path d="M29.991 10.0311C29.9788 11.6371 28.5863 12.8951 26.8356 12.8816C25.12 12.8689 23.7536 11.5854 23.7618 9.99444C23.7691 8.42215 25.1975 7.129 26.896 7.15669C28.636 7.18587 30.0033 8.45582 29.991 10.0311Z" fill="white"/>
</svg>
